<svg xmlns="http://www.w3.org/2000/svg" viewBox="0 0 64 64"><path fill-rule="evenodd" d="M57.55 12.24c-.5.48-1.33-.39-2.63.93 -2.37 2.51-1.25 3.11-2.31 4.22 -1.01 1-2.17.16-3 .98 0 0-10.66 10.65-12.28 12.26 -1.16 1.15-2.35 2.49-2.35 3.34 0 1.25 1.1 2 3 2 1.95 0 3.47-1.96 4.77-2v-.001c.68-.01 1.24.54 1.25 1.22 0 .01 0 .03-.01.05 0 1.06-.32 2.06-2.03 3.72 -3.46 3.35-6.57 3.63-9 6 -3.43 3.42-3.83 8.46-7.85 12.47 -4.61 4.6-9.42 2.41-13.9-1.93C5.9 50.349.15 40.54 7.23 33.68c3.82-3.71 9.99-3.18 14.7-7.75 3.12-3.03 2.99-7.1 6-10l-.001 0c1.11-1.23 2.67-1.95 4.32-2 1.64.06 1.62.45 1.62 1.05 0 1.12-2.96 3.51-2.96 6.94 0 2.36 1.09 3.94 1.94 3.94v0c.93-.11 1.79-.57 2.39-1.3 1.43-1.43 10.4-10.4 10.4-10.4 .72-.73-.3-2.1.96-3.36l-.001 0c2.18-.98 4.3-2.07 6.37-3.28 1.38-.88 3.28-.76 3.99 0l-.001 0c1.05 1.3 1.24 3.11.48 4.61ZM21.72 47.96l-5.71-5.73v0c-.34-.34-.89-.34-1.23-.01 -.01 0-.01 0-.01 0l-.56.55v0c-.31.3-.34.78-.08 1.13 .96 1.31 1.22 2.88 2.11 3.77 .89.89 2.45 1.14 3.76 2.11h-.001c.34.25.82.22 1.13-.08l.55-.56h-.001c.33-.35.33-.89-.01-1.23Z" fill="#D44C47" /></svg>