<svg xmlns="http://www.w3.org/2000/svg" viewBox="0 0 64 64"><path fill-rule="evenodd" d="M52.06 16.93v0 0c-.65-.01-1.26.25-1.71.7L39.33 28.64v0c-.36.36-.39.93-.08 1.33 3.51 4.6 3.63 8.51.76 11.38 -2.74 2.73-4.35 3-5.98 4.62 -1.63 1.62-.17 6.01-4.76 10.6 -4.59 4.58-11.38 5.26-19.28-2.64 -7.91-7.91-7.23-14.69-2.64-19.27 4.58-4.59 9.01-3.1 10.64-4.721 1.62-1.63 1.86-3.27 4.59-6.01 2.86-2.87 6.78-2.75 11.38.75v0c.39.31.96.28 1.32-.08l11.01-11.02v0c.45-.46.7-1.07.7-1.71v0h0c-.01-.65.25-1.26.7-1.71l3.92-3.923v0c.24-.25.6-.35.94-.27V5.96c1.29.31 2.47.96 3.43 1.89v0c.92.95 1.57 2.14 1.89 3.43v-.001c.08.34-.02.7-.27.94l-3.93 3.92h0c-.46.45-1.07.7-1.71.7Zm-37.27 25.3l-.56.55v0c-.31.3-.34.78-.08 1.13 .96 1.31 1.22 2.88 2.11 3.77 .89.89 2.45 1.14 3.76 2.11v0c.34.25.82.22 1.13-.08l.55-.56v0c.33-.35.33-.89 0-1.23l-5.71-5.73h0c-.34-.34-.89-.34-1.23-.01 -.01 0-.01 0-.01 0Zm13.22-10.29H28c-2.22-.01-4.01 1.79-4.01 4 -.01 2.21 1.79 4 4 4s4-1.8 4-4.01c0-.01 0-.01 0-.01v0c0-2.22-1.8-4.01-4.01-4.01 -.01-.01-.01-.01-.01-.01Z" fill="#CB912F" /></svg>