<svg xmlns="http://www.w3.org/2000/svg" viewBox="0 0 64 64"><path fill-rule="evenodd" d="M52 44v4c0 4.41-8.96 8-20 8 -11.05 0-20-3.59-20-8v-4 0c.1-1.41.84-2.69 2-3.48v-9.05 0c-1.16-.8-1.9-2.08-2-3.48v-4c0-2.03 1.91-3.6 5.07-4.91v0c.5-.23 1.09-.04 1.37.44q.22.43.43.85v0c.21.44.02.98-.42 1.19 -.02 0-.04.01-.05.02 -1.48.69-2.43 1.44-2.43 2.38 0 2.76 7.16 5 16 5 8.83 0 16-2.24 16-5 0-.94-.95-1.69-2.43-2.39l-.001-.001c-.46-.19-.68-.72-.49-1.17 0-.02.01-.04.02-.05q.21-.43.43-.86v-.001c.27-.48.86-.68 1.37-.45 3.16 1.3 5.07 2.88 5.07 4.9v4 0c-.11 1.4-.85 2.68-2 3.48v9.04 -.001c1.15.79 1.89 2.07 2 3.47Zm-26-7v0c0-.56-.45-1-1-1 -.56 0-1 .44-1 1v10 0c0 .55.44 1 1 1 .55 0 1-.45 1-1Zm14 0v0c0-.56-.45-1-1-1 -.56 0-1 .44-1 1v10 0c0 .55.44 1 1 1 .55 0 1-.45 1-1Zm-.14-14.29v0c.18.53.17 1.12-.03 1.65v0c-.48 1.29-1.92 1.95-3.21 1.47 -1.3-.48-1.96-1.92-1.48-3.21 .22-.62.68-1.12 1.26-1.4v0c.22-.14.39-.34.48-.58 1.61-4.52 5.01-14.07 5.39-15.11v0c.47-1.27 1.88-1.91 3.14-1.44 .04.01.09.03.14.05v0c1.18.5 1.73 1.87 1.22 3.05 -.01.02-.02.04-.03.06 -.44.93-4.86 10.38-6.88 14.69v0c-.1.21-.12.46-.06.69Zm-13.93 3.22v0c-.82-.19-1.49-.78-1.79-1.57v0c-.21-.54-.22-1.12-.03-1.66h0c.06-.24.04-.48-.06-.7 -2.02-4.31-6.44-13.77-6.88-14.7h-.001c-.54-1.17-.03-2.56 1.13-3.09 .02-.01.04-.02.06-.03v0c1.23-.56 2.67-.01 3.22 1.22 .02.04.04.09.05.14 .37 1.03 3.77 10.58 5.39 15.1v0c.09.24.26.44.48.57v0c1.24.59 1.77 2.08 1.17 3.32 -.51 1.05-1.68 1.61-2.81 1.35Z" fill="#55534E" /></svg>